<?xml version="1.0" encoding="UTF-8" standalone="no"?>
    <svg
       width="528"
       height="816"
       viewBox="0 0 528 816"
       version="1.1"
       id="svg5"
       inkscape:version="1.2.2 (b0a8486541, 2022-12-01)"
       xml:space="preserve"
       xmlns:inkscape="http://www.inkscape.org/namespaces/inkscape"
       xmlns:sodipodi="http://sodipodi.sourceforge.net/DTD/sodipodi-0.dtd"
       xmlns="http://www.w3.org/2000/svg"
       xmlns:svg="http://www.w3.org/2000/svg"><defs
         id="defs21" /><sodipodi:namedview
         id="namedview7"
         pagecolor="#ffffff"
         bordercolor="#666666"
         borderopacity="1.0"
         inkscape:pageshadow="2"
         inkscape:pageopacity="0.0"
         inkscape:pagecheckerboard="0"
         inkscape:document-units="in"
         inkscape:snap-global="false"
         fit-margin-top="0"
         fit-margin-left="0"
         fit-margin-right="0"
         fit-margin-bottom="0"
         units="in"
         width="528in"
         inkscape:showpageshadow="2"
         inkscape:deskcolor="#d1d1d1"
         showguides="false"
         inkscape:lockguides="false"><inkscape:grid
       type="xygrid"
       id="grid1046"
       originx="0"
       originy="0"
       spacingy="1"
       spacingx="1"
       units="in"
       visible="false" />
<inkscape:page x="0.000000" y="0" width="528.000000" height="816.000000" id="page_0" margin="48.000000" bleed="0"/>
<inkscape:page x="624.000000" y="0" width="528.000000" height="816.000000" id="page_1" margin="48.000000" bleed="0"/>
<inkscape:page x="1152.000000" y="0" width="528.000000" height="816.000000" id="page_2" margin="48.000000" bleed="0"/>
<inkscape:page x="1776.000000" y="0" width="528.000000" height="816.000000" id="page_3" margin="48.000000" bleed="0"/>
<inkscape:page x="2304.000000" y="0" width="528.000000" height="816.000000" id="page_4" margin="48.000000" bleed="0"/>
<inkscape:page x="2928.000000" y="0" width="528.000000" height="816.000000" id="page_5" margin="48.000000" bleed="0"/>
<inkscape:page x="3456.000000" y="0" width="528.000000" height="816.000000" id="page_6" margin="48.000000" bleed="0"/>
<inkscape:page x="4080.000000" y="0" width="528.000000" height="816.000000" id="page_7" margin="48.000000" bleed="0"/>
<inkscape:page x="4608.000000" y="0" width="528.000000" height="816.000000" id="page_8" margin="48.000000" bleed="0"/>
<inkscape:page x="5232.000000" y="0" width="528.000000" height="816.000000" id="page_9" margin="48.000000" bleed="0"/>
<inkscape:page x="5760.000000" y="0" width="528.000000" height="816.000000" id="page_10" margin="48.000000" bleed="0"/>
<inkscape:page x="6384.000000" y="0" width="528.000000" height="816.000000" id="page_11" margin="48.000000" bleed="0"/>
<inkscape:page x="6912.000000" y="0" width="528.000000" height="816.000000" id="page_12" margin="48.000000" bleed="0"/>
<inkscape:page x="7536.000000" y="0" width="528.000000" height="816.000000" id="page_13" margin="48.000000" bleed="0"/>
<inkscape:page x="8064.000000" y="0" width="528.000000" height="816.000000" id="page_14" margin="48.000000" bleed="0"/>
<inkscape:page x="8688.000000" y="0" width="528.000000" height="816.000000" id="page_15" margin="48.000000" bleed="0"/>
<inkscape:page x="9216.000000" y="0" width="528.000000" height="816.000000" id="page_16" margin="48.000000" bleed="0"/>
<inkscape:page x="9840.000000" y="0" width="528.000000" height="816.000000" id="page_17" margin="48.000000" bleed="0"/>
<inkscape:page x="10368.000000" y="0" width="528.000000" height="816.000000" id="page_18" margin="48.000000" bleed="0"/>
<inkscape:page x="10992.000000" y="0" width="528.000000" height="816.000000" id="page_19" margin="48.000000" bleed="0"/>
<inkscape:page x="11520.000000" y="0" width="528.000000" height="816.000000" id="page_20" margin="48.000000" bleed="0"/>
<inkscape:page x="12144.000000" y="0" width="528.000000" height="816.000000" id="page_21" margin="48.000000" bleed="0"/>
<inkscape:page x="12672.000000" y="0" width="528.000000" height="816.000000" id="page_22" margin="48.000000" bleed="0"/>
<inkscape:page x="13296.000000" y="0" width="528.000000" height="816.000000" id="page_23" margin="48.000000" bleed="0"/>
<inkscape:page x="13824.000000" y="0" width="528.000000" height="816.000000" id="page_24" margin="48.000000" bleed="0"/>
<inkscape:page x="14448.000000" y="0" width="528.000000" height="816.000000" id="page_25" margin="48.000000" bleed="0"/>
<inkscape:page x="14976.000000" y="0" width="528.000000" height="816.000000" id="page_26" margin="48.000000" bleed="0"/>
<inkscape:page x="15600.000000" y="0" width="528.000000" height="816.000000" id="page_27" margin="48.000000" bleed="0"/>
<inkscape:page x="16128.000000" y="0" width="528.000000" height="816.000000" id="page_28" margin="48.000000" bleed="0"/>
<inkscape:page x="16752.000000" y="0" width="528.000000" height="816.000000" id="page_29" margin="48.000000" bleed="0"/>
<inkscape:page x="17280.000000" y="0" width="528.000000" height="816.000000" id="page_30" margin="48.000000" bleed="0"/>
<inkscape:page x="17904.000000" y="0" width="528.000000" height="816.000000" id="page_31" margin="48.000000" bleed="0"/>
<inkscape:page x="18432.000000" y="0" width="528.000000" height="816.000000" id="page_32" margin="48.000000" bleed="0"/>
<inkscape:page x="19056.000000" y="0" width="528.000000" height="816.000000" id="page_33" margin="48.000000" bleed="0"/>
<inkscape:page x="19584.000000" y="0" width="528.000000" height="816.000000" id="page_34" margin="48.000000" bleed="0"/>
<inkscape:page x="-528.000000" y="0" width="528.000000" height="816.000000" id="page_35" margin="48.000000" bleed="0"/>
</svg>